<svg viewBox="0 0 122.498 157.564" xml:space="preserve" xmlns="http://www.w3.org/2000/svg" enable-background="new 0 0 122.498 157.564"><path d="M13.32 119.545v23.156h5.907v-6.03l5.375 5.374h9.062l-7.188-7.188s5.17-.084 5.562-7.562c0-6.86-5.177-7.75-11.156-7.75H13.32zm6.188 6.281h5.094v4.125h-5.094v-4.125zM45.07 119.64c-3.233-.02-7.718.28-7.718 6.374v16.094h6.062v-3.938h5.875v3.844h6.094V125.14c0-5.293-5.881-5.5-9.031-5.5-.394 0-.82.003-1.281 0zm-1.562 5.811h5.688v6.344h-5.688v-6.344zM61.457 119.654h6.272v22.152h-6.272zM74.298 119.948V142.1h15.094v-5.88h-8.92v-16.37l-6.174.098zM109.388 119.752v5.98H99.292v2.155h4.312c2.253 0 6.959-.098 6.959 6.96 0 7.057-3.234 7.45-9.801 7.45h-7.94v-5.393h9.116c2.744 0 2.896-.894 2.896-1.672s-1.403-1.14-4.257-1.14-8.146-1.403-8.146-6.892c0-5.489 2.744-7.548 8.233-7.548s8.724.1 8.724.1zM18.819 112.99h52.146s-11.566-26.27-8.626-50.382c2.94-24.112 21.956-35.09 32.738-36.267 10.78-1.177 16.663 5.49 16.663 5.49l2.353-3.53S98.606 12.618 79.002 14.383c-19.604 1.764-33.13 14.702-41.56 30.385-8.43 15.684-13.33 26.661-16.662 43.128s-1.961 25.093-1.961 25.093zM8.43 86.72l10.194.784-1.765 10.193-9.605-1.176 1.176-9.8zM24.505 65.156l2.745-7.645-9.018-3.529-2.94 8.233 9.213 2.941zM37.247 38.887l5.293-6.272-6.861-4.509-5.49 6.076 7.058 4.705zM51.165 14.58l4.705 5.684 6.469-3.725-4.705-5.293-6.47 3.333zM74.102 8.11l1.176 5.686 8.038-.196-.785-5.097-8.43-.393z" fill="#cc0100" class="fill-000000"></path><path d="m101.35 14.187-.195 3.528 5.489 2.94 1.176-1.764-6.47-4.704zM100.174 29.282v2.94l5.293.588v-2.353l-5.293-1.175zM83.316 31.83l2.548 4.704 3.725-2.94-.784-3.137-5.49 1.373zM75.277 37.908l3.92 5.881-2.352 4.116-5.685-6.272 4.117-3.725zM67.437 54.178l-2.55 5.097 6.666 5.686 1.568-6.47-5.684-4.313zM64.692 72.017l-.392 6.861 8.233 3.53-.392-6.47-7.45-3.92zM67.044 96.326l1.96 7.058 10.39.588-3.725-7.646h-8.625z" fill="#cc0100" class="fill-000000"></path></svg>