<?xml version="1.0" standalone="no"?>
<!DOCTYPE svg PUBLIC "-//W3C//DTD SVG 20010904//EN"
 "http://www.w3.org/TR/2001/REC-SVG-20010904/DTD/svg10.dtd">
<svg version="1.0" xmlns="http://www.w3.org/2000/svg"
 width="221.000000pt" height="217.000000pt" viewBox="0 0 221.000000 217.000000"
 preserveAspectRatio="xMidYMid meet">

<g transform="translate(0.000000,217.000000) scale(0.100000,-0.100000)"
fill="#000000" stroke="none">
<path d="M1626 1491 c-20 -38 -97 -226 -171 -418 -75 -191 -143 -359 -152
-372 -8 -13 -32 -31 -54 -40 -32 -13 -39 -21 -39 -43 l0 -28 150 0 150 0 0 28
c0 25 -6 30 -55 47 -63 21 -63 5 -5 160 l38 100 177 0 176 0 45 -114 c25 -63
43 -120 40 -126 -2 -7 -25 -18 -50 -25 -41 -11 -46 -16 -46 -41 l0 -29 175 0
175 0 0 28 c0 25 -6 31 -41 42 -23 8 -46 22 -52 31 -6 9 -85 207 -177 440
l-167 424 -41 3 -41 3 -35 -70z m59 -154 c4 -17 32 -91 61 -164 30 -72 54
-137 54 -142 0 -7 -47 -11 -136 -11 l-136 0 6 25 c15 60 128 335 136 330 5 -3
12 -20 15 -38z"/>
<path d="M112 1523 c3 -22 11 -29 59 -45 41 -14 59 -25 63 -41 3 -12 6 -180 6
-373 0 -399 4 -381 -82 -404 -43 -11 -48 -15 -48 -41 l0 -29 195 0 195 0 0 28
c0 24 -6 30 -57 47 l-58 20 -3 183 -2 182 232 -2 233 -3 3 -163 c1 -98 -2
-170 -8 -182 -6 -11 -34 -27 -65 -36 -50 -16 -55 -20 -55 -46 l0 -28 195 0
195 0 0 28 c0 24 -6 30 -57 47 l-58 20 -3 379 c-1 257 1 383 8 390 6 6 32 18
58 27 39 13 48 20 50 42 l3 27 -196 0 -196 0 3 -27 c3 -22 11 -29 60 -45 70
-23 70 -26 66 -213 l-3 -130 -232 -3 -233 -2 0 159 c0 176 -3 166 70 192 36
13 46 21 48 42 l3 27 -196 0 -196 0 3 -27z"/>
</g>
</svg>
